# xmcd CD database file
#
# Track frame offsets:
#	150
#	21115
#	45985
#
# Disc length: 889 seconds
#
# Revision: 0
# Processed by: cddbd v1.5PL3 Copyright (c) Steve Scherf et al.
# Submitted via: CDex 1.51
#
DISCID=17037703
DTITLE=REBECCA - フレンズ 〜remixed edition〜
DYEAR=1999
DGENRE=Pop
TTITLE0=フレンズ 〜remixed edition〜
TTITLE1=Maybe Tomorrow
TTITLE2=フレンズ 〜Backing Track〜
EXTD=YEAR: 1999
EXTT0=
EXTT1=
EXTT2=
PLAYORDER=
